<?xml version="1.0" encoding="utf-8"?>
<!-- Generator: Adobe Illustrator 19.1.0, SVG Export Plug-In . SVG Version: 6.00 Build 0)  -->
<svg version="1.1" id="Layer_1" xmlns="http://www.w3.org/2000/svg" xmlns:xlink="http://www.w3.org/1999/xlink" x="0px" y="0px"
	 viewBox="-255 334 100 106" style="enable-background:new -255 334 100 106;" xml:space="preserve">
<path d="M-160.5,349.6l-10.2-10.2c-1.1-1.1-2.9-1.1-4,0c-23.3,23.3-46.7,46.7-70,70l-5.7,19.8l19.8-5.7c23.3-23.3,46.7-46.7,70-70
	C-159.4,352.5-159.4,350.7-160.5,349.6z M-178.9,347.7l6.2,6.2l-61.8,61.8l-6.2-6.2L-178.9,347.7z M-239.4,423.3l-4.9-4.9l1.9-6.6
	l9.6,9.6L-239.4,423.3z M-230.5,419.7l-2-2c20.6-20.6,41.2-41.2,61.8-61.8l2,2L-230.5,419.7z M-166.7,355.9
	c-3.4-3.4-6.8-6.8-10.2-10.2l4.3-4.3l10.2,10.2L-166.7,355.9z"/>
</svg>
