<?xml version="1.0" encoding="utf-8"?>
<!-- Generator: Adobe Illustrator 19.1.0, SVG Export Plug-In . SVG Version: 6.00 Build 0)  -->
<svg version="1.1" id="Layer_1" xmlns="http://www.w3.org/2000/svg" xmlns:xlink="http://www.w3.org/1999/xlink" x="0px" y="0px"
	 viewBox="-251.5 342.9 94.1 82.1" style="enable-background:new -251.5 342.9 94.1 82.1;" xml:space="preserve">
<g>
	<path d="M-224.6,361.8c-0.9-0.9-2.4-0.9-3.3,0l-20.7,20.7c-0.9,0.9-0.9,2.4,0,3.3l20.7,20.7c0.5,0.5,1,0.7,1.6,0.7
		c0.6,0,1.2-0.2,1.6-0.7c0.9-0.9,0.9-2.4,0-3.3l-19-19.1l19.1-19.1C-223.7,364.2-223.7,362.7-224.6,361.8z"/>
	<path d="M-159.7,382.5l-20.7-20.7c-0.9-0.9-2.4-0.9-3.3,0c-0.9,0.9-0.9,2.4,0,3.3l19.1,19.1l-19.1,19c-0.9,0.9-0.9,2.4,0,3.3
		c0.5,0.5,1,0.7,1.6,0.7c0.6,0,1.2-0.2,1.6-0.7l20.7-20.7C-158.8,384.9-158.8,383.4-159.7,382.5z"/>
	<path d="M-193.9,345.6c-1.2-0.4-2.5,0.3-2.9,1.5l-22.9,72.7c-0.4,1.2,0.3,2.5,1.5,2.9c0.2,0.1,0.5,0.1,0.7,0.1c1,0,1.9-0.6,2.2-1.6
		l22.9-72.8C-192,347.2-192.7,345.9-193.9,345.6z"/>
</g>
</svg>
