<?xml version="1.0" encoding="utf-8"?>
<!-- Generator: Adobe Illustrator 19.1.0, SVG Export Plug-In . SVG Version: 6.00 Build 0)  -->
<svg version="1.1" id="Layer_1" xmlns="http://www.w3.org/2000/svg" xmlns:xlink="http://www.w3.org/1999/xlink" x="0px" y="0px"
	 viewBox="-267 360.5 76.7 72.5" style="enable-background:new -267 360.5 76.7 72.5;" xml:space="preserve">
<style type="text/css">
	.st0{fill:#232323;}
</style>
<g>
	<path class="st0" d="M-472,749.8c10.7,0,19.5-8.7,19.5-19.5c0-10.7-8.7-19.5-19.5-19.5c-10.7,0-19.5,8.7-19.5,19.5
		S-482.7,749.8-472,749.8z M-472,714.4c8.8,0,15.9,7.1,15.9,15.9s-7.1,15.9-15.9,15.9s-15.9-7.1-15.9-15.9S-480.8,714.4-472,714.4z"
		/>
	<path class="st0" d="M-456.9,750.8l-0.8-0.2l-0.7,0.4c-4.1,2.7-8.8,4.1-13.7,4.1c-4.9,0-9.6-1.4-13.7-4.1l-0.7-0.4l-0.8,0.2
		c-13.5,3.4-20.7,12.2-20.7,25.4v2h70.2l1.7-0.1l0.1-1.9C-436,763-443.2,754.2-456.9,750.8z M-504.4,774.6
		c0.6-10.4,6.4-17.2,17.4-20.2c4.5,2.8,9.7,4.3,15,4.3s10.5-1.5,15-4.3c11,3,16.9,9.8,17.4,20.2H-504.4z"/>
</g>
</svg>
