<?xml version="1.0" encoding="utf-8"?>
<!-- Generator: Adobe Illustrator 19.1.0, SVG Export Plug-In . SVG Version: 6.00 Build 0)  -->
<svg version="1.1" id="Layer_1" xmlns="http://www.w3.org/2000/svg" xmlns:xlink="http://www.w3.org/1999/xlink" x="0px" y="0px"
	 viewBox="-248.7 347.6 76.7 76.4" style="enable-background:new -248.7 347.6 76.7 76.4;" xml:space="preserve">
<g>
	<path d="M-210,390.3c10.7,0,19.5-8.7,19.5-19.5c0-10.7-8.7-19.5-19.5-19.5c-10.7,0-19.5,8.7-19.5,19.5S-220.7,390.3-210,390.3z
		 M-210,354.9c8.8,0,15.9,7.1,15.9,15.9s-7.1,15.9-15.9,15.9c-8.8,0-15.9-7.1-15.9-15.9C-225.9,362-218.8,354.9-210,354.9z"/>
	<path d="M-194.9,391.3l-0.8-0.2l-0.7,0.4c-4.1,2.7-8.8,4.1-13.7,4.1c-4.9,0-9.6-1.4-13.7-4.1l-0.7-0.4l-0.8,0.2
		c-13.5,3.4-20.7,12.2-20.7,25.4v2h70.2l1.7-0.1l0.1-1.9C-174,403.5-181.2,394.7-194.9,391.3z M-242.4,415.1
		c0.6-10.4,6.4-17.2,17.4-20.2c4.5,2.8,9.7,4.3,15,4.3c5.3,0,10.5-1.5,15-4.3c11,3,16.9,9.8,17.4,20.2
		C-177.6,415.1-242.4,415.1-242.4,415.1z"/>
</g>
</svg>
