<?xml version="1.0" encoding="utf-8"?>
<!-- Generator: Adobe Illustrator 19.1.0, SVG Export Plug-In . SVG Version: 6.00 Build 0)  -->
<svg version="1.1" id="Layer_1" xmlns="http://www.w3.org/2000/svg" xmlns:xlink="http://www.w3.org/1999/xlink" x="0px" y="0px"
	 viewBox="-281 367 48 51" style="enable-background:new -281 367 48 51;" xml:space="preserve">
<path d="M-233.3,388.8l-23-21.5c-0.4-0.4-1-0.4-1.4,0l-23,21.5c-0.4,0.4-0.4,1,0,1.4c0.4,0.4,1,0.4,1.4,0l5-4.7V414c0,0.6,0.4,1,1,1
	h8.9c0.1,0,0.1,0,0.2,0c0.1,0,0.1,0,0.2,0c0.6,0,1-0.4,1-1v-14.2h12.2V414c0,0.6,0.4,1,1,1c0.1,0,0.1,0,0.2,0c0.1,0,0.1,0,0.2,0h8.8
	c0.6,0,1-0.4,1-1v-28.5l5,4.7c0.2,0.2,0.5,0.3,0.7,0.3c0.3,0,0.5-0.1,0.7-0.3C-232.9,389.8-232.9,389.2-233.3,388.8z M-241.7,413
	h-7.2v-14.2c0-0.6-0.4-1-1-1h-14.2c-0.6,0-1,0.4-1,1V413h-7.2v-29.3l15.3-14.3l15.3,14.3V413z"/>
</svg>
