<?xml version="1.0" encoding="utf-8"?>
<!-- Generator: Adobe Illustrator 19.1.0, SVG Export Plug-In . SVG Version: 6.00 Build 0)  -->
<svg version="1.1" id="Layer_1" xmlns="http://www.w3.org/2000/svg" xmlns:xlink="http://www.w3.org/1999/xlink" x="0px" y="0px"
	 viewBox="-284 365.5 42 50" style="enable-background:new -284 365.5 42 50;" xml:space="preserve">
<g>
	<rect x="-273" y="392" width="20" height="1"/>
	<rect x="-273" y="388" width="20" height="1"/>
	<rect x="-273" y="384" width="12" height="1"/>
	<rect x="-273" y="396" width="20" height="1"/>
	<rect x="-273" y="400" width="20" height="1"/>
	<path d="M-245.9,379.6l-10.6-10.3c-0.6-0.5-1.3-0.8-2.1-0.8H-278c-1.7,0-3,1.3-3,3v38c0,1.7,1.3,3,3,3h30c1.7,0,3-1.3,3-3v-27.7
		C-245,381-245.3,380.2-245.9,379.6z M-256.4,372.2l7.5,7.3h-7.5V372.2z M-247,409.5c0,0.6-0.4,1-1,1h-30c-0.6,0-1-0.4-1-1v-38
		c0-0.6,0.4-1,1-1h19.4c0.1,0,0.1,0,0.2,0v9c0,1.1,0.9,2,2,2h9.4c0,0.1,0.1,0.2,0.1,0.3V409.5z"/>
</g>
</svg>
