<?xml version="1.0" encoding="utf-8"?>
<!-- Generator: Adobe Illustrator 19.1.0, SVG Export Plug-In . SVG Version: 6.00 Build 0)  -->
<svg version="1.1" id="Layer_1" xmlns="http://www.w3.org/2000/svg" xmlns:xlink="http://www.w3.org/1999/xlink" x="0px" y="0px"
	 viewBox="-255 353 100 88" style="enable-background:new -255 353 100 88;" xml:space="preserve">
<style type="text/css">
	.st0{fill:#232323;}
</style>
<path class="st0" d="M-414,709h-27v-5.5c0-3.6-2.9-6.5-6.5-6.5h-25c-3.6,0-6.5,2.9-6.5,6.5v5.5h-27c-1.7,0-3,1.5-3,3.1v60
	c0,1.7,1.3,2.9,3,2.9h92c1.7,0,3-1.2,3-2.9v-60C-411,710.5-412.3,709-414,709z M-476,703.5c0-1.9,1.6-3.5,3.5-3.5h25
	c1.9,0,3.5,1.6,3.5,3.5v5.5h-32V703.5z M-414,772h-92v-19.2c1,0.7,2.2,1.2,3.5,1.2h32.5v3.5c0,0.8,0.7,1.5,1.5,1.5h17
	c0.8,0,1.5-0.7,1.5-1.5V754h32.5c1.3,0,2.5-0.4,3.5-1.2V772z M-414,747c0,2.1-1.7,4-3.5,4h-34h-17h-34c-1.8,0-3.5-1.9-3.5-4v-35h92
	V747z"/>
</svg>
